<?xml version="1.0" encoding="UTF-8" standalone="no"?>
<!-- Created with Inkscape (http://www.inkscape.org/) -->

<svg
   xmlns:dc="http://purl.org/dc/elements/1.1/"
   xmlns:cc="http://creativecommons.org/ns#"
   xmlns:rdf="http://www.w3.org/1999/02/22-rdf-syntax-ns#"
   xmlns:svg="http://www.w3.org/2000/svg"
   xmlns="http://www.w3.org/2000/svg"
   xmlns:sodipodi="http://sodipodi.sourceforge.net/DTD/sodipodi-0.dtd"
   xmlns:inkscape="http://www.inkscape.org/namespaces/inkscape"
   version="1.1"
   width="248.57062"
   height="71.189003"
   id="svg3004"
   xml:space="preserve"
   inkscape:version="0.48.4 r9939"
   sodipodi:docname="logo.svg"><sodipodi:namedview
     pagecolor="#ffffff"
     bordercolor="#666666"
     borderopacity="1"
     objecttolerance="10"
     gridtolerance="10"
     guidetolerance="10"
     inkscape:pageopacity="0"
     inkscape:pageshadow="2"
     inkscape:window-width="2560"
     inkscape:window-height="1550"
     id="namedview3012"
     showgrid="false"
     fit-margin-top="0"
     fit-margin-left="0"
     fit-margin-right="0"
     fit-margin-bottom="0"
     inkscape:zoom="1.0965786"
     inkscape:cx="129.7785"
     inkscape:cy="-8.8324175"
     inkscape:window-x="0"
     inkscape:window-y="24"
     inkscape:window-maximized="1"
     inkscape:current-layer="svg3004" /><metadata
     id="metadata3010"><rdf:RDF><cc:Work
         rdf:about=""><dc:format>image/svg+xml</dc:format><dc:type
           rdf:resource="http://purl.org/dc/dcmitype/StillImage" /><dc:title /></cc:Work></rdf:RDF></metadata><defs
     id="defs3008"><clipPath
       id="clipPath3022"><path
         d="m 0,841.89 595.28,0 L 595.28,0 0,0 0,841.89 z"
         id="path3024"
         inkscape:connector-curvature="0" /></clipPath></defs><g
     transform="matrix(1.25,0,0,-1.25,-227.482,419.18125)"
     id="g3012"><g
       transform="translate(380.5771,322.585)"
       id="g3014"><path
         d="m 0,0 0.265,1.648 -8.807,1.53 3.248,8.933 -1.523,0.649 -5.238,-8.144 -7.191,6.58 -1.221,-1.236 5.839,-7.857 -7.759,-5.16 0.695,-1.605 8.909,3.82 3.279,-9.35 1.62,0.35 L -9.023,-0.28 0,0 z"
         id="path3016"
         style="fill:#fab41e;fill-opacity:1;fill-rule:nonzero;stroke:none"
         inkscape:connector-curvature="0" /></g><g
       id="g3018"><g
         clip-path="url(#clipPath3022)"
         id="g3020"><g
           transform="translate(208.7876,308.708)"
           id="g3026"><path
             d="m 0,0 c 0,2.229 -0.385,4.312 -1.153,6.252 -0.768,1.939 -1.903,3.644 -3.406,5.111 -1.503,1.469 -3.365,2.623 -5.585,3.467 -2.222,0.844 -4.785,1.266 -7.69,1.266 -1.169,0 -2.305,-0.033 -3.407,-0.1 -1.102,-0.07 -2.021,-0.172 -2.754,-0.306 l 0,-32.037 c 0.766,-0.133 1.685,-0.236 2.754,-0.302 1.069,-0.07 2.287,-0.102 3.658,-0.102 2.905,0 5.459,0.431 7.665,1.291 2.204,0.859 4.039,2.041 5.51,3.542 1.469,1.501 2.571,3.272 3.305,5.314 C -0.368,-4.563 0,-2.361 0,0 m 3.005,0 c 0,-2.564 -0.443,-5.001 -1.327,-7.312 -0.885,-2.311 -2.188,-4.352 -3.907,-6.123 -1.721,-1.772 -3.875,-3.182 -6.463,-4.227 -2.588,-1.047 -5.585,-1.568 -8.991,-1.568 -1.772,0 -3.449,0.058 -5.035,0.176 -1.587,0.118 -2.949,0.262 -4.084,0.43 l 0,36.593 c 1.135,0.168 2.471,0.31 4.009,0.429 1.535,0.118 3.171,0.178 4.909,0.178 3.406,0 6.412,-0.523 9.017,-1.569 2.605,-1.046 4.784,-2.431 6.537,-4.151 1.754,-1.72 3.08,-3.695 3.984,-5.92 C 2.555,4.707 3.005,2.396 3.005,0"
             id="path3028"
             style="fill:#ffffff;fill-opacity:1;fill-rule:nonzero;stroke:none"
             inkscape:connector-curvature="0" /></g><path
           d="m 217.553,310.987 2.806,0 0,-21.156 -2.806,0 0,21.156 z m 3.408,7.844 c 0,-0.574 -0.194,-1.056 -0.577,-1.442 -0.384,-0.388 -0.861,-0.581 -1.428,-0.581 -0.568,0 -1.044,0.193 -1.427,0.581 -0.385,0.386 -0.577,0.868 -0.577,1.442 0,0.574 0.192,1.064 0.577,1.469 0.383,0.404 0.859,0.607 1.427,0.607 0.567,0 1.044,-0.203 1.428,-0.607 0.383,-0.405 0.577,-0.895 0.577,-1.469"
           id="path3030"
           style="fill:#ffffff;fill-opacity:1;fill-rule:nonzero;stroke:none"
           inkscape:connector-curvature="0" /><g
           transform="translate(238.7935,295.7021)"
           id="g3032"><path
             d="m 0,0 c 0,-0.809 -0.159,-1.595 -0.475,-2.353 -0.318,-0.758 -0.77,-1.435 -1.353,-2.025 -0.586,-0.59 -1.295,-1.056 -2.13,-1.393 -0.834,-0.336 -1.752,-0.503 -2.754,-0.503 -1.403,0 -2.706,0.242 -3.909,0.731 -1.202,0.489 -2.337,1.122 -3.406,1.899 l 1.353,2.026 c 0.868,-0.676 1.811,-1.235 2.831,-1.673 1.017,-0.438 2.029,-0.656 3.03,-0.656 1.368,0 2.421,0.328 3.156,0.988 0.735,0.657 1.102,1.525 1.102,2.605 0,0.843 -0.259,1.525 -0.776,2.048 -0.519,0.525 -1.161,0.981 -1.929,1.369 -0.768,0.387 -1.595,0.743 -2.48,1.063 -0.885,0.32 -1.712,0.715 -2.48,1.188 -0.768,0.474 -1.41,1.064 -1.927,1.772 -0.519,0.708 -0.778,1.619 -0.778,2.733 0,0.775 0.151,1.51 0.452,2.202 0.3,0.692 0.742,1.314 1.327,1.872 0.584,0.556 1.293,0.994 2.129,1.315 0.834,0.32 1.769,0.48 2.806,0.48 1.102,0 2.169,-0.192 3.206,-0.579 1.033,-0.39 1.986,-0.872 2.854,-1.443 L -1.402,11.54 c -0.77,0.573 -1.546,1.021 -2.33,1.341 -0.786,0.32 -1.628,0.48 -2.53,0.48 -1.403,0 -2.438,-0.328 -3.106,-0.985 -0.668,-0.66 -1.002,-1.427 -1.002,-2.304 0,-0.809 0.258,-1.461 0.776,-1.95 0.519,-0.488 1.161,-0.919 1.929,-1.29 C -6.896,6.461 -6.07,6.105 -5.185,5.77 -4.3,5.433 -3.474,5.025 -2.705,4.556 -1.937,4.083 -1.294,3.484 -0.776,2.758 -0.259,2.031 0,1.114 0,0"
             id="path3034"
             style="fill:#ffffff;fill-opacity:1;fill-rule:nonzero;stroke:none"
             inkscape:connector-curvature="0" /></g><g
           transform="translate(247.6606,308.5078)"
           id="g3036"><path
             d="m 0,0 0,-13.262 c 0,-2.225 1.168,-3.339 3.507,-3.339 0.4,0 0.784,0.024 1.151,0.075 0.367,0.05 0.735,0.109 1.102,0.178 l 0.251,-2.381 c -0.569,-0.1 -1.094,-0.184 -1.579,-0.25 -0.483,-0.07 -1.01,-0.101 -1.577,-0.101 -1.804,0 -3.181,0.48 -4.133,1.442 -0.951,0.962 -1.428,2.487 -1.428,4.579 l 0,13.059 -3.556,0 0,0.658 3.556,1.974 0,4.555 L 0,9.211 0,2.479 6.612,2.479 6.612,0 0,0 z"
             id="path3038"
             style="fill:#ffffff;fill-opacity:1;fill-rule:nonzero;stroke:none"
             inkscape:connector-curvature="0" /></g><g
           transform="translate(260.9858,278.8984)"
           id="g3040"><path
             d="m 0,0 -2.806,0 5.911,12.351 -8.967,19.738 3.056,0 7.264,-16.903 7.314,16.903 3.006,0 L 0,0 z"
             id="path3042"
             style="fill:#ffffff;fill-opacity:1;fill-rule:nonzero;stroke:none"
             inkscape:connector-curvature="0" /></g><path
           d="m 278.968,326.929 2.757,0 0,-37.098 -2.757,0 0,37.098 z"
           id="path3044"
           style="fill:#ffffff;fill-opacity:1;fill-rule:nonzero;stroke:none"
           inkscape:connector-curvature="0" /><path
           d="m 287.886,310.987 2.805,0 0,-21.156 -2.805,0 0,21.156 z m 3.406,7.844 c 0,-0.574 -0.192,-1.056 -0.575,-1.442 -0.385,-0.388 -0.861,-0.581 -1.428,-0.581 -0.568,0 -1.044,0.193 -1.428,0.581 -0.384,0.386 -0.576,0.868 -0.576,1.442 0,0.574 0.192,1.064 0.576,1.469 0.384,0.404 0.86,0.607 1.428,0.607 0.567,0 1.043,-0.203 1.428,-0.607 0.383,-0.405 0.575,-0.895 0.575,-1.469"
           id="path3046"
           style="fill:#ffffff;fill-opacity:1;fill-rule:nonzero;stroke:none"
           inkscape:connector-curvature="0" /><g
           transform="translate(312.9834,305.6738)"
           id="g3048"><path
             d="m 0,0 c -0.77,0.91 -1.746,1.686 -2.931,2.326 -1.186,0.642 -2.479,0.962 -3.883,0.962 -1.136,0 -2.17,-0.211 -3.106,-0.633 -0.934,-0.422 -1.745,-1.02 -2.429,-1.796 -0.685,-0.777 -1.219,-1.688 -1.603,-2.732 -0.384,-1.048 -0.577,-2.212 -0.577,-3.492 0,-1.215 0.193,-2.338 0.577,-3.366 0.384,-1.031 0.918,-1.924 1.603,-2.683 0.684,-0.759 1.51,-1.359 2.48,-1.798 0.969,-0.437 2.053,-0.657 3.256,-0.657 1.335,0 2.58,0.294 3.731,0.887 1.153,0.587 2.112,1.374 2.882,2.351 L 0,0 z m 2.755,-17.917 c 0,-3.205 -0.751,-5.566 -2.254,-7.088 -1.503,-1.516 -3.675,-2.275 -6.513,-2.275 -1.236,0 -2.413,0.109 -3.532,0.328 -1.119,0.22 -2.262,0.516 -3.432,0.887 l 0.501,2.582 c 1.103,-0.439 2.162,-0.751 3.181,-0.939 1.019,-0.184 2.012,-0.278 2.982,-0.278 2.204,0 3.807,0.532 4.809,1.596 1.002,1.063 1.503,2.724 1.503,4.985 l 0,4.656 c -0.835,-0.777 -1.854,-1.434 -3.057,-1.975 -1.202,-0.539 -2.554,-0.808 -4.057,-0.808 -1.47,0 -2.83,0.269 -4.083,0.808 -1.251,0.541 -2.33,1.292 -3.232,2.253 -0.901,0.961 -1.602,2.108 -2.103,3.442 -0.501,1.332 -0.751,2.791 -0.751,4.378 0,1.55 0.265,3.003 0.801,4.351 0.534,1.351 1.268,2.524 2.205,3.517 0.933,0.996 2.029,1.779 3.28,2.353 1.254,0.575 2.58,0.861 3.982,0.861 1.504,0 2.872,-0.278 4.11,-0.834 1.233,-0.558 2.235,-1.239 3.006,-2.049 l 0,2.479 2.654,0 0,-23.23 z"
             id="path3050"
             style="fill:#ffffff;fill-opacity:1;fill-rule:nonzero;stroke:none"
             inkscape:connector-curvature="0" /></g><g
           transform="translate(336.3281,289.8311)"
           id="g3052"><path
             d="m 0,0 0,13.614 c 0,1.788 -0.386,3.156 -1.151,4.101 -0.771,0.943 -2.004,1.416 -3.708,1.416 -1.337,0 -2.655,-0.403 -3.958,-1.216 -1.302,-0.809 -2.438,-1.752 -3.407,-2.831 l 0,-15.084 -2.755,0 0,37.098 2.755,0 0,-19.535 c 1.035,1.114 2.237,2.057 3.608,2.834 1.369,0.776 2.804,1.163 4.307,1.163 2.405,0 4.191,-0.692 5.361,-2.074 1.17,-1.383 1.753,-3.138 1.753,-5.262 L 2.805,0 0,0 z"
             id="path3054"
             style="fill:#ffffff;fill-opacity:1;fill-rule:nonzero;stroke:none"
             inkscape:connector-curvature="0" /></g><g
           transform="translate(348.499,308.5078)"
           id="g3056"><path
             d="m 0,0 0,-13.262 c 0,-2.225 1.17,-3.339 3.507,-3.339 0.401,0 0.784,0.024 1.151,0.075 0.367,0.05 0.735,0.109 1.103,0.178 l 0.251,-2.381 c -0.568,-0.1 -1.094,-0.184 -1.578,-0.25 -0.485,-0.07 -1.011,-0.101 -1.579,-0.101 -1.803,0 -3.18,0.48 -4.133,1.442 -0.951,0.962 -1.426,2.487 -1.426,4.579 l 0,13.059 -3.558,0 0,0.658 3.558,1.974 0,4.555 L 0,9.211 0,2.479 6.612,2.479 6.612,0 0,0 z"
             id="path3058"
             style="fill:#ffffff;fill-opacity:1;fill-rule:nonzero;stroke:none"
             inkscape:connector-curvature="0" /></g></g></g></g></svg>